<svg width="48" height="48" viewBox="0 0 48 48" fill="none" xmlns="http://www.w3.org/2000/svg">
<mask id="mask0_488_63" style="mask-type:alpha" maskUnits="userSpaceOnUse" x="24" y="23" width="12" height="2">
<rect x="24" y="23" width="12" height="2" fill="black"/>
</mask>
<g mask="url(#mask0_488_63)">
<rect x="24" y="23" width="1" height="2" rx="0.5" fill="#41EAD4"/>
</g>
<mask id="mask1_488_63" style="mask-type:alpha" maskUnits="userSpaceOnUse" x="23" y="12" width="2" height="12">
<rect x="23" y="12" width="2" height="12" fill="black"/>
</mask>
<g mask="url(#mask1_488_63)">
<rect x="23" y="24" width="1" height="2" rx="0.5" transform="rotate(-90 23 24)" fill="#41EAD4"/>
</g>
<mask id="mask2_488_63" style="mask-type:alpha" maskUnits="userSpaceOnUse" x="12" y="23" width="12" height="2">
<rect x="12" y="23" width="12" height="2" fill="black"/>
</mask>
<g mask="url(#mask2_488_63)">
<rect x="24" y="25" width="1" height="2" rx="0.5" transform="rotate(-180 24 25)" fill="#41EAD4"/>
</g>
<mask id="mask3_488_63" style="mask-type:alpha" maskUnits="userSpaceOnUse" x="23" y="24" width="2" height="1">
<rect x="25" y="24" width="1" height="2" rx="0.5" transform="rotate(90 25 24)" fill="black"/>
</mask>
<g mask="url(#mask3_488_63)">
<rect x="23" y="24" width="2" height="12" fill="#41EAD4"/>
</g>
</svg>
